<svg viewBox="0 0 20 20" fill="none" xmlns="http://www.w3.org/2000/svg">
    <path d="M6 14H14M9.0177 1.4777L2.23539 6.54639C1.78202 6.88521 1.55534 7.05462 1.39203 7.26678C1.24737 7.45471 1.1396 7.66643 1.07403 7.89153C1 8.14564 1 8.42158 1 8.97347V15.9252C1 17.0015 1 17.5397 1.21799 17.9507C1.40973 18.3123 1.71569 18.6063 2.09202 18.7905C2.51984 19 3.07989 19 4.2 19H15.8C16.9201 19 17.4802 19 17.908 18.7905C18.2843 18.6063 18.5903 18.3123 18.782 17.9507C19 17.5397 19 17.0015 19 15.9252V8.97347C19 8.42158 19 8.14564 18.926 7.89153C18.8604 7.66643 18.7526 7.45471 18.608 7.26678C18.4447 7.05462 18.218 6.88521 17.7646 6.54639L10.9823 1.4777C10.631 1.21514 10.4553 1.08386 10.2613 1.03339C10.0902 0.988868 9.9098 0.988868 9.7387 1.03339C9.5447 1.08386 9.369 1.21514 9.0177 1.4777Z" stroke="black" stroke-width="2" stroke-linecap="round" stroke-linejoin="round"/>
</svg>
