<svg viewBox="0 0 204 205" fill="none" xmlns="http://www.w3.org/2000/svg">
  <path fill-rule="evenodd" clip-rule="evenodd" d="M127.338 24.1306C110.869 18.7536 93.1287 18.7538 76.6599 24.1313C60.191 29.5088 45.8389 39.9874 35.6606 54.0654C25.4822 68.1434 20.0001 85.0981 20 102.499C19.9999 119.901 25.4817 136.855 35.6599 150.934C45.838 165.012 60.1899 175.491 76.6587 180.868C93.1276 186.246 110.868 186.247 127.337 180.87C143.806 175.493 158.158 165.015 168.337 150.937C178.516 136.86 183.999 119.905 184 102.504C184 96.9541 188.478 92.4552 194 92.4555C199.523 92.4558 204 96.9551 204 102.505C203.999 124.151 197.179 145.24 184.517 162.751C171.856 180.262 154.003 193.296 133.517 199.984C113.031 206.673 90.9635 206.672 70.4779 199.983C49.9924 193.293 32.1399 180.259 19.4793 162.747C6.81871 145.235 -0.000155764 124.145 2.66864e-09 102.499C0.000155769 80.8537 6.81933 59.7638 19.4802 42.2521C32.1411 24.7404 49.9937 11.7061 70.4793 5.01701C90.965 -1.67204 113.032 -1.67234 133.518 5.01614C138.771 6.73107 141.645 12.4002 139.939 17.6785C138.232 22.9568 132.591 25.8456 127.338 24.1306Z" fill="#633AE5"/>
</svg>
